<?xml version="1.0" standalone="no"?>
<!DOCTYPE svg PUBLIC "-//W3C//DTD SVG 20010904//EN"
 "http://www.w3.org/TR/2001/REC-SVG-20010904/DTD/svg10.dtd">
<svg version="1.0" xmlns="http://www.w3.org/2000/svg"
 width="600.000000pt" height="600.000000pt" viewBox="0 0 600.000000 600.000000"
 preserveAspectRatio="xMidYMid meet">
<metadata>
Created by potrace 1.14, written by Peter Selinger 2001-2017
</metadata>
<g transform="translate(0.000000,600.000000) scale(0.100000,-0.100000)"
fill="#000000" stroke="none">
<path d="M2751 5989 c-115 -9 -117 -9 -281 -38 -150 -27 -329 -70 -375 -91
-11 -5 -51 -19 -90 -31 -38 -12 -74 -26 -80 -29 -5 -4 -21 -11 -35 -15 -79
-23 -388 -178 -446 -224 -15 -12 -30 -21 -35 -21 -5 0 -54 -33 -110 -72 -55
-40 -111 -80 -122 -88 -113 -76 -400 -355 -492 -476 -16 -22 -31 -41 -35 -44
-22 -20 -166 -227 -205 -295 -15 -27 -31 -52 -34 -55 -14 -11 -191 -378 -191
-397 -1 -4 -9 -26 -20 -48 -11 -22 -19 -48 -20 -57 0 -9 -4 -19 -9 -22 -5 -3
-12 -22 -16 -42 -3 -20 -10 -44 -15 -53 -9 -15 -24 -73 -56 -206 -13 -52 -29
-140 -48 -265 -22 -136 -28 -269 -23 -500 3 -140 10 -273 16 -295 5 -22 12
-62 15 -90 10 -84 35 -208 61 -302 38 -135 58 -199 66 -208 5 -5 9 -15 9 -22
0 -37 120 -306 209 -468 37 -67 112 -187 122 -195 3 -3 13 -18 22 -35 9 -16
26 -42 39 -57 13 -14 30 -36 38 -48 8 -13 26 -37 40 -54 14 -17 32 -39 40 -50
96 -123 407 -423 489 -470 9 -5 21 -14 27 -20 6 -6 22 -18 34 -26 12 -8 31
-23 42 -32 12 -10 25 -18 29 -18 4 0 14 -6 21 -13 15 -14 85 -60 132 -86 18
-11 44 -25 57 -33 13 -7 26 -15 29 -18 14 -14 268 -132 355 -165 55 -20 109
-41 120 -46 37 -16 109 -37 215 -64 58 -14 121 -31 140 -36 44 -12 212 -36
350 -50 61 -7 205 -9 345 -6 296 6 445 27 720 99 44 11 89 24 100 28 11 4 43
16 70 25 46 16 140 51 210 78 40 16 329 159 335 166 7 8 39 28 78 48 17 9 32
20 32 25 0 4 5 8 10 8 10 0 72 42 170 114 184 137 406 350 522 501 13 16 30
37 38 47 40 45 180 245 180 257 0 4 9 20 21 35 40 51 219 403 219 431 0 4 7
21 14 38 36 79 92 256 121 382 8 33 16 67 19 75 4 8 12 58 20 110 8 52 17 106
19 120 21 98 29 479 15 659 -12 149 -73 500 -90 517 -5 4 -8 17 -8 28 0 18
-51 170 -103 311 -17 45 -82 191 -98 218 -5 10 -20 37 -31 60 -26 52 -130 230
-138 237 -3 3 -17 23 -30 45 -26 42 -145 203 -164 220 -6 6 -24 28 -41 50 -38
51 -288 301 -340 340 -22 17 -44 35 -50 41 -16 18 -177 137 -220 164 -22 13
-42 27 -45 30 -9 11 -218 130 -228 130 -6 0 -12 3 -14 8 -3 7 -58 35 -143 72
-27 12 -63 28 -80 35 -63 29 -216 85 -292 106 -43 12 -87 25 -98 29 -59 21
-313 68 -465 85 -88 10 -445 12 -559 4z"/>
</g>
</svg>
